<svg width="40" height="40" viewBox="0 0 40 40" fill="none" xmlns="http://www.w3.org/2000/svg">
  <circle cx="20" cy="20" r="20" fill="#007BFF" fill-opacity="0.1"/>
  <path d="M20 11C17.2386 11 15 13.2386 15 16C15 18.7614 17.2386 21 20 21C22.7614 21 25 18.7614 25 16C25 13.2386 22.7614 11 20 11Z" fill="#007BFF"/>
  <path d="M12 27.2C12 24.2 15.6 22 20 22C24.4 22 28 24.2 28 27.2V29H12V27.2Z" fill="#007BFF"/>
  <circle cx="17" cy="15" r="1" fill="white"/>
  <circle cx="23" cy="15" r="1" fill="white"/>
  <path d="M16 19C16 19 18 21 20 21C22 21 24 19 24 19" stroke="white" stroke-width="1.5" stroke-linecap="round"/>
</svg> 